<svg width="80" height="37" viewBox="0 0 80 37" fill="none" xmlns="http://www.w3.org/2000/svg">
<path d="M74.7116 28.1271C74.2056 28.1031 73.7464 28.043 73.334 27.9469C72.9217 27.8748 72.5 27.7547 72.0689 27.5864C71.6566 27.3942 71.188 27.1418 70.6632 26.8294C70.1571 26.517 69.5574 26.1205 68.8639 25.6398C68.4516 26.2647 68.0205 26.7573 67.5707 27.1178C67.1208 27.4542 66.6616 27.6946 66.1931 27.8388C65.7432 27.983 65.2934 28.055 64.8436 28.055C64.5624 28.055 64.4219 27.8748 64.4219 27.5143V23.0804C64.4219 22.3595 64.703 21.999 65.2653 21.999C65.6402 21.999 65.9588 21.9389 66.2212 21.8188C66.5023 21.6746 66.7835 21.3982 67.0646 20.9897C67.3645 20.5571 67.7206 19.8962 68.1329 19.007C68.8452 17.4209 69.5386 16.2073 70.2134 15.3662C70.9069 14.501 71.6003 13.9002 72.2938 13.5638C73.006 13.2033 73.7276 13.0231 74.4586 13.0231C75.452 13.0231 76.3704 13.3355 77.2138 13.9603C78.0572 14.5851 78.7319 15.4863 79.238 16.6639C79.7441 17.8415 79.9971 19.2714 79.9971 20.9536C79.9971 21.9149 79.8846 22.8401 79.6597 23.7293C79.4348 24.5944 79.0974 25.3755 78.6476 26.0724C78.1978 26.7453 77.6449 27.262 76.9889 27.6225C76.3329 27.983 75.5738 28.1512 74.7116 28.1271ZM74.7679 22.9362C75.1989 22.9362 75.5551 22.78 75.8362 22.4676C76.1173 22.1312 76.2579 21.5905 76.2579 20.8455C76.2767 20.2687 76.1829 19.764 75.9768 19.3315C75.7893 18.8748 75.5269 18.5264 75.1896 18.2861C74.871 18.0217 74.5148 17.8895 74.1212 17.8895C73.7651 17.8895 73.4278 17.9977 73.1091 18.214C72.7905 18.4062 72.4625 18.7427 72.1251 19.2233C71.7878 19.6799 71.4129 20.3408 71.0006 21.2059C71.6753 21.6866 72.2282 22.0471 72.6593 22.2874C73.0904 22.5277 73.4652 22.6959 73.7839 22.7921C74.1212 22.8642 74.4492 22.9122 74.7679 22.9362Z" fill="#F56E14"/>
<path d="M64.8335 28.055H63.3153C62.2657 28.055 61.3848 27.8146 60.6726 27.334C59.9604 26.8534 59.4168 26.0843 59.042 25.0269C58.6859 23.9695 58.5078 22.6117 58.5078 20.9535V1.66789C58.5078 1.40353 58.5734 1.19926 58.7046 1.05507C58.8546 0.886847 59.0326 0.802734 59.2388 0.802734H61.7128C61.919 0.802734 62.0689 0.886847 62.1626 1.05507C62.2564 1.19926 62.3032 1.39152 62.3032 1.63184V18.9348C62.3032 19.7519 62.3782 20.3888 62.5281 20.8454C62.6781 21.2779 62.9124 21.5783 63.231 21.7466C63.5496 21.9148 63.9619 21.9989 64.468 21.9989H65.2552C65.5363 21.9989 65.6769 22.1791 65.6769 22.5396V26.9735C65.6769 27.6945 65.3958 28.055 64.8335 28.055Z" fill="#F56E14"/>
<path d="M45.5075 36.9228C45.2076 36.9228 44.9921 36.8146 44.8609 36.5984C44.7297 36.4061 44.6641 36.1417 44.6641 35.8053V32.4889C44.6641 32.1284 44.7484 31.8641 44.9171 31.6958C45.0858 31.5516 45.3201 31.4795 45.6199 31.4795H46.3228C47.5223 31.4795 48.4688 31.2032 49.1623 30.6504C49.8745 30.0977 50.39 29.3047 50.7086 28.2713C51.0272 27.2619 51.1865 26.0603 51.1865 24.6665C51.1865 23.4889 51.0834 22.2513 50.8773 20.9536C50.6711 19.6558 50.4181 18.3341 50.1182 16.9883C50.0245 16.4356 50.0245 16.051 50.1182 15.8348C50.2307 15.5944 50.4556 15.4142 50.7929 15.294L52.9577 14.6091C53.2389 14.513 53.4638 14.537 53.6325 14.6812C53.8011 14.8254 53.9323 15.1378 54.0261 15.6185C54.3259 17.1325 54.5883 18.7426 54.8133 20.4489C55.0569 22.1311 55.1787 23.7413 55.1787 25.2793C55.1787 27.5143 54.8601 29.5089 54.2229 31.2633C53.5856 33.0176 52.6391 34.3994 51.3833 35.4088C50.1276 36.4181 48.5907 36.9228 46.7726 36.9228H45.5075Z" fill="#F56E14"/>
<path d="M31.5467 28.0551C31.2656 28.0551 31.125 27.8749 31.125 27.5144V23.0805C31.125 22.3595 31.4061 21.9991 31.9684 21.9991H39.0251C39.7185 21.9991 40.2152 21.8308 40.5151 21.4944C40.815 21.1339 40.9649 20.6533 40.9649 20.0525C40.9649 19.668 40.8431 19.3195 40.5995 19.0071C40.3745 18.6706 40.0653 18.3462 39.6717 18.0338L33.8802 13.1673C33.599 12.951 33.3741 12.6987 33.2054 12.4103C33.0555 12.1219 32.9805 11.6894 32.9805 11.1126V7.32756C32.9805 6.75079 33.0461 6.34225 33.1773 6.10193C33.3273 5.86161 33.5522 5.66935 33.8521 5.52516L44.3386 0.0819269C44.601 -0.0382327 44.7978 -0.0262164 44.929 0.117975C45.079 0.238134 45.1446 0.478455 45.1258 0.838935V3.93905C45.1258 4.2755 45.0696 4.56388 44.9571 4.8042C44.8634 5.04452 44.6947 5.22476 44.4511 5.34492L36.2137 9.45438L40.7962 13.4557C41.7709 14.1046 42.5674 14.7534 43.1859 15.4023C43.8045 16.0511 44.2637 16.7601 44.5635 17.5291C44.8634 18.2981 45.0134 19.2354 45.0134 20.3408C45.0134 21.951 44.7135 23.3328 44.1137 24.4864C43.5327 25.6399 42.7361 26.5291 41.724 27.1539C40.7307 27.7547 39.5967 28.0551 38.3222 28.0551H31.5467Z" fill="#F56E14"/>
<path d="M22.0155 28.055C21.7343 28.055 21.5938 27.8747 21.5938 27.5143V23.0804C21.5938 22.3594 21.8749 21.9989 22.4372 21.9989C23.3931 21.9989 24.049 21.7346 24.4052 21.2059C24.7613 20.6772 24.9393 19.764 24.9393 18.4662V15.294C24.9393 14.6211 25.183 14.2847 25.6703 14.2847H28.1724C28.6598 14.2847 28.9034 14.6211 28.9034 15.294V18.4662C28.9034 19.2833 28.9878 19.9562 29.1564 20.4849C29.3439 21.0136 29.6531 21.3981 30.0842 21.6384C30.534 21.8788 31.1619 21.9989 31.9678 21.9989C32.249 21.9989 32.3896 22.1792 32.3896 22.5396V26.9735C32.3896 27.6945 32.1084 28.055 31.5461 28.055C30.1404 28.055 28.969 27.8267 28.0319 27.3701C27.0947 26.9135 26.4294 26.0723 26.0358 24.8467C25.7359 26.0002 25.2205 26.8293 24.4895 27.334C23.7773 27.8146 22.9526 28.055 22.0155 28.055ZM25.4735 35.1204C25.361 35.2645 25.2205 35.3246 25.0518 35.3006C24.8831 35.3006 24.7332 35.2285 24.602 35.0843L23.2525 33.354C23.14 33.1858 23.0744 32.9935 23.0557 32.7772C23.0557 32.561 23.1213 32.3807 23.2525 32.2365L24.602 30.5062C24.7332 30.338 24.8737 30.2539 25.0237 30.2539C25.1924 30.2539 25.3423 30.338 25.4735 30.5062L26.7949 32.2365C26.9261 32.3807 26.9917 32.561 26.9917 32.7772C27.0104 33.0176 26.9542 33.2218 26.823 33.3901L25.4735 35.1204ZM29.3814 35.1204C29.2689 35.2645 29.1283 35.3246 28.9596 35.3006C28.8097 35.3006 28.6691 35.2285 28.5379 35.0843L27.1603 33.354C27.0479 33.1858 26.9823 32.9935 26.9635 32.7772C26.9635 32.561 27.0291 32.3807 27.1603 32.2365L28.5379 30.5062C28.6691 30.338 28.8097 30.2539 28.9596 30.2539C29.1096 30.2539 29.2408 30.338 29.3532 30.5062L30.7027 32.2365C30.8339 32.3807 30.8995 32.561 30.8995 32.7772C30.9183 33.0176 30.862 33.2218 30.7308 33.3901L29.3814 35.1204Z" fill="#121212"/>
<path d="M6.42012 28.055C6.08275 28.055 5.91406 27.8267 5.91406 27.3701V22.828C5.91406 22.5637 5.97966 22.3594 6.11086 22.2152C6.24206 22.071 6.40137 21.9989 6.5888 21.9989C7.1136 21.9989 7.61965 21.9989 8.10696 21.9989C8.59427 21.9749 9.03473 21.9509 9.42832 21.9268C9.84066 21.8788 10.1499 21.8307 10.3561 21.7827C10.0562 21.3501 9.76569 20.8815 9.48455 20.3768C9.22215 19.8721 9.01598 19.3314 8.86604 18.7546C8.7161 18.1779 8.63176 17.553 8.61302 16.8801C8.61302 15.5824 8.86604 14.4049 9.3721 13.3474C9.87815 12.266 10.581 11.4129 11.4807 10.788C12.3803 10.1392 13.4018 9.81475 14.5451 9.81475C15.6509 9.81475 16.6162 10.1392 17.4408 10.788C18.2655 11.4369 18.9028 12.3021 19.3526 13.3835C19.8212 14.4409 20.0555 15.5944 20.0555 16.8441C20.0555 17.7813 19.9055 18.6585 19.6056 19.4756C19.3245 20.2686 18.8934 21.0377 18.3124 21.7827C18.706 21.8548 19.0527 21.9028 19.3526 21.9268C19.6712 21.9509 20.0555 21.9749 20.5053 21.9989C20.9738 21.9989 21.583 21.9989 22.3327 21.9989C22.4826 21.9989 22.6045 22.059 22.6982 22.1792C22.8106 22.2993 22.8669 22.4556 22.8669 22.6478V26.7933C22.8669 27.6344 22.5201 28.055 21.8266 28.055C20.7208 28.055 19.8118 28.031 19.0996 27.9829C18.3874 27.9348 17.7688 27.8507 17.244 27.7306C16.738 27.6104 16.2507 27.4302 15.7821 27.1898C15.3323 26.9255 14.8075 26.6011 14.2077 26.2165C13.7579 26.577 13.3268 26.8894 12.9145 27.1538C12.5209 27.3941 12.0523 27.5864 11.5088 27.7306C10.984 27.8507 10.3186 27.9348 9.51267 27.9829C8.70673 28.031 7.67588 28.055 6.42012 28.055ZM14.4326 20.6291C15.1074 20.1245 15.6134 19.5837 15.9508 19.007C16.3069 18.4302 16.485 17.8534 16.485 17.2767C16.485 16.5076 16.2975 15.8828 15.9227 15.4022C15.5478 14.9215 15.0605 14.6812 14.4607 14.6812C13.861 14.6812 13.3549 14.9095 12.9426 15.3661C12.5302 15.7987 12.3241 16.3875 12.3241 17.1325C12.3241 17.8534 12.5021 18.4903 12.8582 19.043C13.2331 19.5717 13.7579 20.1004 14.4326 20.6291ZM15.023 6.57044C14.9106 6.71463 14.7606 6.78673 14.5732 6.78673C14.3858 6.7627 14.2265 6.67859 14.0953 6.5344L12.6052 4.62386C12.474 4.45563 12.4084 4.26338 12.4084 4.04709C12.4084 3.80677 12.474 3.6025 12.6052 3.43427L14.0953 1.52374C14.2265 1.35551 14.3764 1.2714 14.5451 1.2714C14.7325 1.24737 14.8825 1.33148 14.9949 1.52374L16.4568 3.43427C16.7942 3.86685 16.813 4.27539 16.5131 4.6599L15.023 6.57044Z" fill="#121212"/>
<path d="M6.32567 28.055H4.80751C3.75792 28.055 2.87701 27.8146 2.16479 27.334C1.45256 26.8534 0.909023 26.0843 0.534168 25.0269C0.178056 23.9695 0 22.6117 0 20.9535V1.66789C0 1.40353 0.0655997 1.19926 0.196799 1.05507C0.346741 0.886847 0.524797 0.802734 0.730967 0.802734H3.20501C3.41118 0.802734 3.56112 0.886847 3.65483 1.05507C3.74855 1.19926 3.7954 1.39152 3.7954 1.63184V18.9348C3.7954 19.7519 3.87037 20.3888 4.02032 20.8454C4.17026 21.2779 4.40454 21.5783 4.72317 21.7466C5.04179 21.9148 5.45413 21.9989 5.96019 21.9989H6.74738C7.02852 21.9989 7.1691 22.1791 7.1691 22.5396V26.9735C7.1691 27.6945 6.88795 28.055 6.32567 28.055Z" fill="#121212"/>
</svg>
